# xmcd CD database file
#
# Track frame offsets:
#	183
#	11845
#	24433
#	37833
#	51558
#	64633
#	77808
#	92433
#	108633
#	121158
#	136158
#	148833
#	160983
#	172870
#	186933
#	200933
#
# Disc length: 2849 seconds
#
# Revision: 3
# Processed by: cddbd v1.5.1PL0 Copyright (c) Steve Scherf et al.
# Submitted via: CDex 1.51
#
DISCID=db0b1f10
DTITLE=Django Reinhardt - Pêche à la mouche - The Great Blue Star Sessions 1947-1953 - CD1 - Pêche à la mouche
DYEAR=2003
DGENRE=Jazz
TTITLE0=Pêche à la mouche [Paris, April 16, 1947]
TTITLE1=Minor Blues [Paris, April 16, 1947]
TTITLE2=For Sentimental Reasons [Paris, July 6, 1947]
TTITLE3=Danse Norvégienne [Paris, July 6, 1947]
TTITLE4=Blues For Barclay [Paris, July 6, 1947]
TTITLE5=Folie à Amphion [Paris, July 6, 1947]
TTITLE6=Vette [Paris, July 6, 1947]
TTITLE7=Anniversary Song [Paris, July 6, 1947]
TTITLE8=Swing 48 [Paris, July 6, 1947]
TTITLE9=September Song [Paris, July 18, 1947]
TTITLE10=Brazil [Paris, July 18, 1947]
TTITLE11=I'll Never Smile Again [Paris, July 18, 1947]
TTITLE12=New York City [Paris, July 18, 1947]
TTITLE13=Django's Blues [Paris, July 18, 1947]
TTITLE14=Love's Mood [Paris, July 18, 1947]
TTITLE15=I Love You [Paris, July 18, 1947]
EXTD=2 CD, first one YEAR: 2003
EXTT0=
EXTT1=
EXTT2=
EXTT3=
EXTT4=
EXTT5=
EXTT6=
EXTT7=
EXTT8=
EXTT9=
EXTT10=
EXTT11=
EXTT12=
EXTT13=
EXTT14=
EXTT15=
PLAYORDER=
